<svg width="147" height="60" viewBox="0 0 147 60" fill="none" xmlns="http://www.w3.org/2000/svg">
<g id="TRINITY LOGO 2" clip-path="url(#clip0_79_481)">
<g id="&#208;&#161;&#208;&#187;&#208;&#190;&#208;&#185;_x0020_1">
<g id="_1487702815456">
<path id="Vector" fill-rule="evenodd" clip-rule="evenodd" d="M48.3235 38.7743V10.4319H53.5112V38.7743H48.3235ZM89.6066 38.7743V10.4319H94.7943V38.7743H89.6066ZM124.323 15.4822H115.465V38.7743H110.277V15.4822H101.991L99.0519 10.4319H127.466L134.311 23.1363L141.155 10.4319H147L136.924 28.9951L136.883 38.7743H131.697V29.0732L124.322 15.4825L124.323 15.4822ZM15.9654 15.4822V38.7743H10.7777V15.4822H2.62539L-0.189453 10.4319H33.5882C36.1925 10.4319 38.7469 11.056 40.6701 12.9243C42.5078 14.7091 43.2425 17.0198 43.2425 19.5668C43.2425 21.6865 42.7305 23.7111 41.36 25.3534C40.1356 26.8206 38.5053 27.6782 36.7009 28.1248L44.9433 38.7743H38.5278L30.7475 28.5053H27.1374V38.7743H21.9495V23.7141C25.6737 23.7141 29.3973 23.7701 33.1213 23.7701C34.401 23.7701 35.8231 23.5405 36.8025 22.6356C37.674 21.8306 38.0158 20.7865 38.0158 19.6067C38.0158 18.4378 37.6803 17.3953 36.805 16.5997C35.8226 15.7068 34.3956 15.4827 33.1213 15.4827C27.4026 15.4827 21.6842 15.4827 15.9656 15.4827L15.9654 15.4822ZM66.6143 19.2123L66.5511 38.7741H61.3631V15.482V15.4223L58.4564 10.4316H67.1484L79.7199 30.0494L79.7629 10.4316H84.9509V38.7738H79.1271L66.6141 19.212L66.6143 19.2123Z" fill="#FEFEFE"/>
</g>
</g>
</g>
<defs>
<clipPath id="clip0_79_481">
<rect width="147" height="60" fill="white"/>
</clipPath>
</defs>
</svg>
