<svg width="147" height="11" viewBox="0 0 147 11" fill="none" xmlns="http://www.w3.org/2000/svg">
<g id="Frame" clip-path="url(#clip0_138_2)">
<path id="Vector" d="M24.4513 9.45794L22.2107 6.16822H21.2366V9.45794H19.4831V4.42056C20.6521 4.42056 21.8211 4.42056 23.0875 4.42056C23.5746 4.42056 23.8668 4.31776 24.159 4.11215C24.159 3.90654 24.3539 3.59813 24.3539 3.18692C24.3539 2.7757 24.2565 2.46729 23.9642 2.26168C23.7694 2.05607 23.3797 1.95327 22.8926 1.95327C21.7237 1.95327 20.5547 1.95327 19.2883 1.95327V0.205607H23.0875C24.0616 0.205607 24.7435 0.514019 25.328 1.02804C25.8151 1.54206 26.1074 2.26168 26.1074 3.18692C26.1074 3.90654 25.9125 4.52337 25.6203 5.03738C25.2306 5.5514 24.841 5.85981 24.159 5.96262L26.5944 9.45794H24.4513ZM4.48111 9.56075C3.21471 9.56075 2.14314 9.14953 1.2664 8.2243C0.389662 7.29907 0 6.16822 0 4.72897C0 3.39252 0.389662 2.26168 1.2664 1.33645C2.14314 0.411215 3.21471 0 4.48111 0C5.55268 0 6.42942 0.308411 7.20875 0.925234C7.98807 1.54206 8.47515 2.36449 8.7674 3.28972H6.81909C6.62425 2.8785 6.33201 2.46729 5.94235 2.15888C5.55268 1.95327 5.06561 1.74766 4.48111 1.74766C3.70179 1.74766 3.01988 2.05607 2.5328 2.57009C2.04573 3.18692 1.75348 3.90654 1.75348 4.72897C1.75348 5.5514 2.04573 6.27103 2.5328 6.88785C3.01988 7.40187 3.70179 7.71028 4.48111 7.71028C4.96819 7.71028 5.45527 7.60748 5.84493 7.29907C6.33201 7.09346 6.62425 6.68224 6.81909 6.27103H8.7674C8.47515 7.19626 7.98807 8.01869 7.20875 8.63551C6.42942 9.25234 5.55268 9.56075 4.48111 9.56075ZM16.171 9.35514L15.3917 7.19626H11.8847L11.1054 9.35514H9.25447L12.5666 0.102804H14.8072L18.1193 9.35514H16.171ZM12.4692 5.4486H14.8072L13.6382 2.05607L12.4692 5.4486ZM36.4334 9.45794L34.0954 6.06542H33.1213V9.35514H31.3678V4.42056C32.5368 4.42056 33.7058 4.42056 34.9722 4.42056C35.4592 4.42056 35.7515 4.31776 36.0437 4.11215C36.2386 3.90654 36.4334 3.59813 36.4334 3.18692C36.4334 2.7757 36.336 2.46729 36.0437 2.26168C35.8489 2.05607 35.4592 1.95327 34.9722 1.95327C33.8032 1.95327 32.6342 1.95327 31.3678 1.95327V0.205607H35.0696C36.0437 0.205607 36.7256 0.514019 37.3101 1.02804C37.7972 1.54206 38.0895 2.26168 38.0895 3.18692C38.0895 3.90654 37.8946 4.52337 37.6024 5.03738C37.2127 5.5514 36.8231 5.85981 36.1412 5.96262L38.5765 9.45794H36.4334ZM45.7853 1.95327H41.6938V3.80374H45.493V5.5514H41.6938V7.50467H45.7853V9.25234H39.9404V0H45.7853V1.95327ZM52.7992 0.205607H54.5527V9.45794H52.507L48.7078 2.98131L48.9026 5.5514V9.45794H47.1491V0.205607H49.1948L52.994 6.68224L52.7992 4.11215V0.205607ZM62.6382 0.205607V1.95327H60.1054V9.35514H58.3519V1.95327H55.8191V0.205607H62.6382ZM69.165 9.45794L68.3857 7.29907H64.8787L64.0994 9.45794H62.2485L65.5606 0.205607H67.8012L71.1133 9.45794H69.165ZM65.5606 5.4486H67.8986L66.7296 2.05607L65.5606 5.4486ZM74.2306 7.60748H77.9324V9.35514H72.3797V0.102804H74.1332V7.60748H74.2306ZM88.4533 4.42056C88.9404 4.62617 89.2326 4.83178 89.5249 5.24299C89.7197 5.65421 89.9145 6.16822 89.9145 6.68224C89.9145 7.50467 89.6223 8.1215 89.1352 8.63551C88.6481 9.14953 87.8688 9.35514 86.9921 9.35514H83.0954V3.80374H86.6998C87.3817 3.80374 87.7714 3.49533 87.7714 2.8785C87.7714 2.57009 87.674 2.26168 87.4791 2.15888C87.2843 2.05607 86.9921 1.95327 86.6024 1.95327C85.4334 1.95327 84.167 1.95327 82.998 1.95327V0.205607H86.7972C87.5765 0.205607 88.2585 0.411215 88.7455 0.82243C89.2326 1.23364 89.4274 1.85047 89.4274 2.57009C89.5249 3.49533 89.1352 4.11215 88.4533 4.42056ZM86.7972 7.60748C87.1869 7.60748 87.5765 7.50467 87.674 7.29907C87.8688 7.09346 87.9662 6.88785 87.9662 6.57944C87.9662 6.27103 87.8688 5.96262 87.674 5.75701C87.4791 5.5514 87.1869 5.5514 86.6998 5.5514H84.7515V7.60748H86.7972ZM92.1551 1.43925C93.0318 0.514019 94.1034 0 95.4672 0C96.7336 0 97.8052 0.411215 98.6819 1.33645C99.5587 2.26168 99.9483 3.39252 99.9483 4.72897C99.9483 6.06542 99.5587 7.19626 98.6819 8.1215C97.8052 9.04673 96.7336 9.45794 95.4672 9.45794C94.2008 9.45794 93.1292 9.04673 92.2525 8.1215C91.3757 7.19626 90.9861 6.06542 90.9861 4.72897C90.8887 3.49533 91.2783 2.36449 92.1551 1.43925ZM97.4155 2.6729C96.9284 2.15888 96.2465 1.85047 95.4672 1.85047C94.6879 1.85047 94.006 2.15888 93.5189 2.6729C93.0318 3.18692 92.7396 3.90654 92.7396 4.83178C92.7396 5.65421 93.0318 6.37383 93.5189 6.99065C94.006 7.50467 94.6879 7.81308 95.4672 7.81308C96.2465 7.81308 96.9284 7.50467 97.4155 6.99065C97.9026 6.47664 98.1948 5.75701 98.1948 4.83178C98.1948 3.90654 97.9026 3.18692 97.4155 2.6729ZM106.962 0.205607H108.813V5.75701C108.813 6.99065 108.521 8.01869 107.839 8.63551C107.157 9.35514 106.28 9.66355 105.209 9.66355C104.137 9.66355 103.26 9.35514 102.579 8.63551C101.897 7.91589 101.604 6.99065 101.604 5.75701V0.205607H103.455V5.65421C103.455 7.09346 104.04 7.81308 105.209 7.81308C106.378 7.81308 106.962 7.09346 106.962 5.65421V0.205607ZM116.801 0.205607V1.95327H114.268V9.35514H112.515V1.95327H109.982V0.205607H116.801ZM118.068 9.45794V0.205607H119.821V9.45794H118.068ZM130.537 4.83178C130.537 6.16822 130.147 7.29907 129.27 8.1215L130.537 9.86916L129.173 11L127.907 9.14953C127.322 9.45794 126.64 9.56075 125.958 9.56075C124.692 9.56075 123.62 9.14953 122.744 8.2243C121.867 7.29907 121.477 6.16822 121.477 4.83178C121.477 3.49533 121.867 2.36449 122.744 1.43925C123.62 0.514019 124.692 0.102804 125.958 0.102804C127.225 0.102804 128.296 0.514019 129.173 1.43925C130.05 2.36449 130.537 3.49533 130.537 4.83178ZM124.01 2.6729C123.523 3.18692 123.231 3.90654 123.231 4.83178C123.231 5.65421 123.523 6.37383 124.01 6.99065C124.497 7.50467 125.179 7.81308 125.958 7.81308C126.738 7.81308 127.419 7.50467 127.907 6.99065C128.394 6.47664 128.686 5.75701 128.686 4.83178C128.686 4.00935 128.394 3.28972 127.907 2.6729C127.419 2.15888 126.738 1.85047 125.958 1.85047C125.179 1.85047 124.497 2.05607 124.01 2.6729ZM137.453 0.205607H139.304V5.75701C139.304 6.99065 139.012 8.01869 138.33 8.63551C137.648 9.35514 136.771 9.66355 135.7 9.66355C134.628 9.66355 133.752 9.35514 133.07 8.63551C132.388 7.91589 132.095 6.99065 132.095 5.75701V0.205607H133.946V5.65421C133.946 7.09346 134.531 7.81308 135.7 7.81308C136.869 7.81308 137.453 7.09346 137.453 5.65421V0.205607ZM147 1.95327H142.909V3.80374H146.708V5.5514H142.909V7.50467H147V9.25234H141.155V0H147V1.95327Z" fill="white"/>
</g>
<defs>
<clipPath id="clip0_138_2">
<rect width="147" height="11" fill="white"/>
</clipPath>
</defs>
</svg>
